/* XPM */
static char * box_c_xpm[] = {
"6 19 2 1",
" 	c #111111",
".	c #FFFFFF",
"      ",
"......",
"......",
"......",
"......",
"......",
"......",
"......",
"......",
"......",
"......",
"......",
"......",
"......",
"......",
"......",
"......",
"......",
"      "};
