/* XPM */
static char * box_l_xpm[] = {
"3 19 3 1",
" 	c None",
".	c #111111",
"+	c #FFFFFF",
"  .",
" .+",
".++",
".++",
".++",
".++",
".++",
".++",
".++",
".++",
".++",
".++",
".++",
".++",
".++",
".++",
".++",
" .+",
"  ."};
