/* XPM */
static char *_e20e654ef03463189e477933736692c6jREWwpccpZTfIqn[] = {
/* columns rows colors chars-per-pixel */
"126 36 8 1 ",
"  c None",
". c #111111",
"X c #B71C1C",
"o c #C62828",
"O c #D32F2F",
"+ c #E53935",
"@ c #F44336",
"# c white",
/* pixels */
"      ............    ..........                  ............    ..........                  ............    ..........      ",
"      ............    ..........                  ............    ..........                  ............    ..........      ",
"      ............    ..........                  ............    ..........                  ............    ..........      ",
"      ............    ..........                  ............    ..........                  ............    ..........      ",
"      ............    ..........                  ............    ..........                  ............    ..........      ",
"      ............    ..........                  ............    ..........                  ............    ..........      ",
"......ooOOOOOO++++....@@@@@@@@@@......      ......            ....          ......      ......            ....          ......",
"......ooOOOOOO++++....@@@@@@@@@@......      ......            ....          ......      ......            ....          ......",
"......ooOOOOOO++++....@@@@@@@@@@......      ......            ....          ......      ......            ....          ......",
"......ooOOOOOO++++....@@@@@@@@@@......      ......            ....          ......      ......            ....          ......",
"......ooooooOO++++++++@@######@@......      ......                          ......      ......                          ......",
"......ooooooOO++++++++@@######@@......      ......                          ......      ......                          ......",
"......ooooooOO++++++++@@######@@......      ......                          ......      ......                          ......",
"......ooooooOO++++++++@@######@@......      ......                          ......      ......                          ......",
"......oooooooo++++++++@@@@@@@@@@......      ......                          ......      ......                          ......",
"......oooooooo++++++++@@@@@@@@@@......      ......                          ......      ......                          ......",
"......XXooooooOOOO++++++++++++@@......      ......                          ......      ......                          ......",
"......XXooooooOOOO++++++++++++@@......      ......                          ......      ......                          ......",
"......XXXXXXoooooo++++++++++@@++......      ......                          ......      ......                          ......",
"......XXXXXXoooooo++++++++++@@++......      ......                          ......      ......                          ......",
"......XXXXXXoooooo++++++++++@@++......      ......                          ......      ......                          ......",
"......XXXXXXoooooo++++++++++@@++......      ......                          ......      ......                          ......",
"      ......XXooooooooooOOOO....                  ......                ....                  ......                ....      ",
"      ......XXooooooooooOOOO....                  ......                ....                  ......                ....      ",
"      ......XXooooooooooOOOO....                  ......                ....                  ......                ....      ",
"      ......XXooooooooooOOOO....                  ......                ....                  ......                ....      ",
"            ......oooo......                            ......    ......                            ......    ......          ",
"            ......oooo......                            ......    ......                            ......    ......          ",
"            ......oooo......                            ......    ......                            ......    ......          ",
"            ......oooo......                            ......    ......                            ......    ......          ",
"            ......oooo......                            ......    ......                            ......    ......          ",
"            ......oooo......                            ......    ......                            ......    ......          ",
"                  ....                                        ....                                        ....                ",
"                  ....                                        ....                                        ....                ",
"                  ....                                        ....                                        ....                ",
"                  ....                                        ....                                        ....                "
};
