/* XPM */
static char *a6807b6be5cc423f89273714d255a9b7nnilk9e4pFWZD4OD[] = {
/* columns rows colors chars-per-pixel */
"126 36 8 1 ",
"  c None",
". c #111111",
"X c #B71C1C",
"o c #C62828",
"O c #D32F2F",
"+ c #E53935",
"@ c #F44336",
"# c white",
/* pixels */
"      ............    ..........                  ............    ..........                  ............    ..........      ",
"      ............    ..........                  ............    ..........                  ............    ..........      ",
"      ............    ..........                  ............    ..........                  ............    ..........      ",
"      ............    ..........                  ............    ..........                  ............    ..........      ",
"      ............    ..........                  ............    ..........                  ............    ..........      ",
"      ............    ..........                  ............    ..........                  ............    ..........      ",
"......ooOOOOOO++++....@@@@@@@@@@......      ......ooOOOOOO++++....@@@@@@@@@@......      ......            ....          ......",
"......ooOOOOOO++++....@@@@@@@@@@......      ......ooOOOOOO++++....@@@@@@@@@@......      ......            ....          ......",
"......ooOOOOOO++++....@@@@@@@@@@......      ......ooOOOOOO++++....@@@@@@@@@@......      ......            ....          ......",
"......ooOOOOOO++++....@@@@@@@@@@......      ......ooOOOOOO++++....@@@@@@@@@@......      ......            ....          ......",
"......ooooooOO++++++++@@######@@......      ......ooooooOO++++++++@@######@@......      ......                          ......",
"......ooooooOO++++++++@@######@@......      ......ooooooOO++++++++@@######@@......      ......                          ......",
"......ooooooOO++++++++@@######@@......      ......ooooooOO++++++++@@######@@......      ......                          ......",
"......ooooooOO++++++++@@######@@......      ......ooooooOO++++++++@@######@@......      ......                          ......",
"......oooooooo++++++++@@@@@@@@@@......      ......oooooooo++++++++@@@@@@@@@@......      ......                          ......",
"......oooooooo++++++++@@@@@@@@@@......      ......oooooooo++++++++@@@@@@@@@@......      ......                          ......",
"......XXooooooOOOO++++++++++++@@......      ......XXooooooOOOO++++++++++++@@......      ......                          ......",
"......XXooooooOOOO++++++++++++@@......      ......XXooooooOOOO++++++++++++@@......      ......                          ......",
"......XXXXXXoooooo++++++++++@@++......      ......XXXXXXoooooo++++++++++@@++......      ......                          ......",
"......XXXXXXoooooo++++++++++@@++......      ......XXXXXXoooooo++++++++++@@++......      ......                          ......",
"......XXXXXXoooooo++++++++++@@++......      ......XXXXXXoooooo++++++++++@@++......      ......                          ......",
"......XXXXXXoooooo++++++++++@@++......      ......XXXXXXoooooo++++++++++@@++......      ......                          ......",
"      ......XXooooooooooOOOO....                  ......XXooooooooooOOOO....                  ......                ....      ",
"      ......XXooooooooooOOOO....                  ......XXooooooooooOOOO....                  ......                ....      ",
"      ......XXooooooooooOOOO....                  ......XXooooooooooOOOO....                  ......                ....      ",
"      ......XXooooooooooOOOO....                  ......XXooooooooooOOOO....                  ......                ....      ",
"            ......oooo......                            ......oooo......                            ......    ......          ",
"            ......oooo......                            ......oooo......                            ......    ......          ",
"            ......oooo......                            ......oooo......                            ......    ......          ",
"            ......oooo......                            ......oooo......                            ......    ......          ",
"            ......oooo......                            ......oooo......                            ......    ......          ",
"            ......oooo......                            ......oooo......                            ......    ......          ",
"                  ....                                        ....                                        ....                ",
"                  ....                                        ....                                        ....                ",
"                  ....                                        ....                                        ....                ",
"                  ....                                        ....                                        ....                "
};
