/* XPM */
static char *result[] = {
/* columns rows colors chars-per-pixel */
"64 64 11 1 ",
"  c #1C2F60",
". c #635D96",
"X c #36A6E0",
"o c #74DFF5",
"O c #A6858F",
"+ c #FFB482",
"@ c #FFE3AE",
"# c #978BDE",
"$ c #C4C7EE",
"% c gray99",
"& c None",
/* pixels */
"&&&&&&&&&&&&&&&&&&                            &&&&&&&&&&&&&&&&&&",
"&&&&&&&&&&&&&&&&&&                            &&&&&&&&&&&&&&&&&&",
"&&&&&&&&&&&&&&&&&&                            &&&&&&&&&&&&&&&&&&",
"&&&&&&&&&&&&&&&&&&                            &&&&&&&&&&&&&&&&&&",
"&&&&&&&&&&&&&&    oooooooooooooooooooooooooooo    &&&&&&&&&&&&&&",
"&&&&&&&&&&&&&&    oooooooooooooooooooooooooooo    &&&&&&&&&&&&&&",
"&&&&&&&&&&&&&&    oooooooooooooooooooooooooooo    &&&&&&&&&&&&&&",
"&&&&&&&&&&&&&&    oooooooooooooooooooooooooooo    &&&&&&&&&&&&&&",
"&&&&&&&&&&    oooooooooooooooooooooooooooooooooooo    &&&&&&&&&&",
"&&&&&&&&&&    oooooooooooooooooooooooooooooooooooo    &&&&&&&&&&",
"&&&&&&&&&&    oooooooooooooooooooooooooooooooooooo    &&&&&&&&&&",
"&&&&&&&&&&    oooooooooooooooooooooooooooooooooooo    &&&&&&&&&&",
"&&&&&&&&&&    oooooooooooooooooooooooooooooooooooo    &&&&&&&&&&",
"&&&&&&&&&&    oooooooooooooooooooooooooooooooooooo    &&&&&&&&&&",
"&&&&&&&&&&    oooooooooooooooooooooooooooooooooooo    &&&&&&&&&&",
"&&&&&&&&&&    oooooooooooooooooooooooooooooooooooo    &&&&&&&&&&",
"&&&&&&&&&&    oooooooooooo$$$$%%%%$$$$oooooooooooo    &&&&&&&&&&",
"&&&&&&&&&&    oooooooooooo$$$$%%%%$$$$oooooooooooo    &&&&&&&&&&",
"&&&&&&&&&&    oooooooooooo$$$$%%%%$$$$oooooooooooo    &&&&&&&&&&",
"&&&&&&&&&&    oooooooooooo$$$$%%%%$$$$oooooooooooo    &&&&&&&&&&",
"&&&&&&&&&&    oooooooooooo%%%%%%%%%%%%oooooooooooo    &&&&&&&&&&",
"&&&&&&&&&&    oooooooooooo%%%%%%%%%%%%oooooooooooo    &&&&&&&&&&",
"&&&&&&&&&&    oooooooooooo%%%%%%%%%%%%oooooooooooo    &&&&&&&&&&",
"&&&&&&&&&&    oooooooooooo%%%%%%%%%%%%oooooooooooo    &&&&&&&&&&",
"&&&&&&&&&&    XXXXXXXXXXXXXXXXXXXXXXXXXXXXXXXXXXXX    &&&&&&&&&&",
"&&&&&&&&&&    XXXXXXXXXXXXXXXXXXXXXXXXXXXXXXXXXXXX    &&&&&&&&&&",
"&&&&&&&&&&    XXXXXXXXXXXXXXXXXXXXXXXXXXXXXXXXXXXX    &&&&&&&&&&",
"&&&&&&&&&&    XXXXXXXXXXXXXXXXXXXXXXXXXXXXXXXXXXXX    &&&&&&&&&&",
"&&&&&&    ++++....oooooooooooooooooooooooooooo....++++    &&&&&&",
"&&&&&&    ++++....oooooooooooooooooooooooooooo....++++    &&&&&&",
"&&&&&&    ++++....oooooooooooooooooooooooooooo....++++    &&&&&&",
"&&&&&&    ++++....oooooooooooooooooooooooooooo....++++    &&&&&&",
"&&&&&&    ++++OOOO@@@@    @@@@@@@@@@@@    @@@@OOOO++++    &&&&&&",
"&&&&&&    ++++OOOO@@@@    @@@@@@@@@@@@    @@@@OOOO++++    &&&&&&",
"&&&&&&    ++++OOOO@@@@    @@@@@@@@@@@@    @@@@OOOO++++    &&&&&&",
"&&&&&&    ++++OOOO@@@@    @@@@@@@@@@@@    @@@@OOOO++++    &&&&&&",
"&&&&&&&&&&    OOOO@@@@    @@@@@@@@@@@@    @@@@OOOO    &&&&&&&&&&",
"&&&&&&&&&&    OOOO@@@@    @@@@@@@@@@@@    @@@@OOOO    &&&&&&&&&&",
"&&&&&&&&&&    OOOO@@@@    @@@@@@@@@@@@    @@@@OOOO    &&&&&&&&&&",
"&&&&&&&&&&    OOOO@@@@    @@@@@@@@@@@@    @@@@OOOO    &&&&&&&&&&",
"&&&&&&&&&&&&&&    ++++@@@@@@@@@@@@@@@@@@@@++++    &&&&&&&&&&&&&&",
"&&&&&&&&&&&&&&    ++++@@@@@@@@@@@@@@@@@@@@++++    &&&&&&&&&&&&&&",
"&&&&&&&&&&&&&&    ++++@@@@@@@@@@@@@@@@@@@@++++    &&&&&&&&&&&&&&",
"&&&&&&&&&&&&&&    ++++@@@@@@@@@@@@@@@@@@@@++++    &&&&&&&&&&&&&&",
"&&&&&&&&&&&&&&        XXXXXXXX$$$$XXXXXXXX        &&&&&&&&&&&&&&",
"&&&&&&&&&&&&&&        XXXXXXXX$$$$XXXXXXXX        &&&&&&&&&&&&&&",
"&&&&&&&&&&&&&&        XXXXXXXX$$$$XXXXXXXX        &&&&&&&&&&&&&&",
"&&&&&&&&&&&&&&        XXXXXXXX$$$$XXXXXXXX        &&&&&&&&&&&&&&",
"&&&&&&&&&&    ++++@@@@    oooo%%%%oooooooo    OOOO    &&&&&&&&&&",
"&&&&&&&&&&    ++++@@@@    oooo%%%%oooooooo    OOOO    &&&&&&&&&&",
"&&&&&&&&&&    ++++@@@@    oooo%%%%oooooooo    OOOO    &&&&&&&&&&",
"&&&&&&&&&&    ++++@@@@    oooo%%%%oooooooo    OOOO    &&&&&&&&&&",
"&&&&&&&&&&    @@@@@@@@                %%%%%%%%        &&&&&&&&&&",
"&&&&&&&&&&    @@@@@@@@                %%%%%%%%        &&&&&&&&&&",
"&&&&&&&&&&    @@@@@@@@                %%%%%%%%        &&&&&&&&&&",
"&&&&&&&&&&    @@@@@@@@                %%%%%%%%        &&&&&&&&&&",
"&&&&&&&&&&&&&&        ........    %%%%$$$$$$$$    &&&&&&&&&&&&&&",
"&&&&&&&&&&&&&&        ........    %%%%$$$$$$$$    &&&&&&&&&&&&&&",
"&&&&&&&&&&&&&&        ........    %%%%$$$$$$$$    &&&&&&&&&&&&&&",
"&&&&&&&&&&&&&&        ........    %%%%$$$$$$$$    &&&&&&&&&&&&&&",
"&&&&&&&&&&&&&&&&&&    ########    $$$$$$$$        &&&&&&&&&&&&&&",
"&&&&&&&&&&&&&&&&&&    ########    $$$$$$$$        &&&&&&&&&&&&&&",
"&&&&&&&&&&&&&&&&&&    ########    $$$$$$$$        &&&&&&&&&&&&&&",
"&&&&&&&&&&&&&&&&&&    ########    $$$$$$$$        &&&&&&&&&&&&&&"
};
