/* XPM */
static char * idle_xpm[] = {
"64 64 10 1",
" 	c None",
".	c #1C2F60",
"+	c #74DFF5",
"@	c #C4C7EE",
"#	c #FCFCFC",
"$	c #36A6E0",
"%	c #FFB482",
"&	c #635D96",
"*	c #A6858F",
"=	c #FFE3AE",
"                  ............................                  ",
"                  ............................                  ",
"                  ............................                  ",
"                  ............................                  ",
"              ....++++++++++++++++++++++++++++....              ",
"              ....++++++++++++++++++++++++++++....              ",
"              ....++++++++++++++++++++++++++++....              ",
"              ....++++++++++++++++++++++++++++....              ",
"          ....++++++++++++++++++++++++++++++++++++....          ",
"          ....++++++++++++++++++++++++++++++++++++....          ",
"          ....++++++++++++++++++++++++++++++++++++....          ",
"          ....++++++++++++++++++++++++++++++++++++....          ",
"          ....++++++++++++@@@@####@@@@++++++++++++....          ",
"          ....++++++++++++@@@@####@@@@++++++++++++....          ",
"          ....++++++++++++@@@@####@@@@++++++++++++....          ",
"          ....++++++++++++@@@@####@@@@++++++++++++....          ",
"          ....++++++++++++############++++++++++++....          ",
"          ....++++++++++++############++++++++++++....          ",
"          ....++++++++++++############++++++++++++....          ",
"          ....++++++++++++############++++++++++++....          ",
"          ....$$$$$$$$$$$$$$$$$$$$$$$$$$$$$$$$$$$$....          ",
"          ....$$$$$$$$$$$$$$$$$$$$$$$$$$$$$$$$$$$$....          ",
"          ....$$$$$$$$$$$$$$$$$$$$$$$$$$$$$$$$$$$$....          ",
"          ....$$$$$$$$$$$$$$$$$$$$$$$$$$$$$$$$$$$$....          ",
"      ....%%%%&&&&++++++++++++++++++++++++++++&&&&%%%%....      ",
"      ....%%%%&&&&++++++++++++++++++++++++++++&&&&%%%%....      ",
"      ....%%%%&&&&++++++++++++++++++++++++++++&&&&%%%%....      ",
"      ....%%%%&&&&++++++++++++++++++++++++++++&&&&%%%%....      ",
"      ....%%%%****====....============....====****%%%%....      ",
"      ....%%%%****====....============....====****%%%%....      ",
"      ....%%%%****====....============....====****%%%%....      ",
"      ....%%%%****====....============....====****%%%%....      ",
"          ....****====....============....====****....          ",
"          ....****====....============....====****....          ",
"          ....****====....============....====****....          ",
"          ....****====....============....====****....          ",
"              ....%%%%====================%%%%....              ",
"              ....%%%%====================%%%%....              ",
"              ....%%%%====================%%%%....              ",
"              ....%%%%====================%%%%....              ",
"              ........$$$$$$$$@@@@$$$$$$$$........              ",
"              ........$$$$$$$$@@@@$$$$$$$$........              ",
"              ........$$$$$$$$@@@@$$$$$$$$........              ",
"              ........$$$$$$$$@@@@$$$$$$$$........              ",
"          ....====$$$$++++++++####++++++++$$$$====....          ",
"          ....====$$$$++++++++####++++++++$$$$====....          ",
"          ....====$$$$++++++++####++++++++$$$$====....          ",
"          ....====$$$$++++++++####++++++++$$$$====....          ",
"      ....====%%%%....++++++++####++++++++....%%%%====....      ",
"      ....====%%%%....++++++++####++++++++....%%%%====....      ",
"      ....====%%%%....++++++++####++++++++....%%%%====....      ",
"      ....====%%%%....++++++++####++++++++....%%%%====....      ",
"      ....========....&&&&............&&&&....========....      ",
"      ....========....&&&&............&&&&....========....      ",
"      ....========....&&&&............&&&&....========....      ",
"      ....========....&&&&............&&&&....========....      ",
"          ............&&&&&&&&....&&&&&&&&............          ",
"          ............&&&&&&&&....&&&&&&&&............          ",
"          ............&&&&&&&&....&&&&&&&&............          ",
"          ............&&&&&&&&....&&&&&&&&............          ",
"              ....@@@@@@@@@@@@....@@@@@@@@@@@@....              ",
"              ....@@@@@@@@@@@@....@@@@@@@@@@@@....              ",
"              ....@@@@@@@@@@@@....@@@@@@@@@@@@....              ",
"              ....@@@@@@@@@@@@....@@@@@@@@@@@@....              "};
