/* XPM */
static char *result[] = {
/* columns rows colors chars-per-pixel */
"64 64 11 1 ",
"  c #1C2F60",
". c #635D96",
"X c #36A6E0",
"o c #74DFF5",
"O c #A6858F",
"+ c #FFB482",
"@ c #FFE3AE",
"# c #978BDE",
"$ c #C4C7EE",
"% c gray99",
"& c None",
/* pixels */
"&&&&&&&&&&&&&&&&&&                            &&&&&&&&&&&&&&&&&&",
"&&&&&&&&&&&&&&&&&&                            &&&&&&&&&&&&&&&&&&",
"&&&&&&&&&&&&&&&&&&                            &&&&&&&&&&&&&&&&&&",
"&&&&&&&&&&&&&&&&&&                            &&&&&&&&&&&&&&&&&&",
"&&&&&&&&&&&&&&    oooooooooooooooooooooooooooo    &&&&&&&&&&&&&&",
"&&&&&&&&&&&&&&    oooooooooooooooooooooooooooo    &&&&&&&&&&&&&&",
"&&&&&&&&&&&&&&    oooooooooooooooooooooooooooo    &&&&&&&&&&&&&&",
"&&&&&&&&&&&&&&    oooooooooooooooooooooooooooo    &&&&&&&&&&&&&&",
"&&&&&&&&&&    oooooooooooooooooooooooooooooooooooo    &&&&&&&&&&",
"&&&&&&&&&&    oooooooooooooooooooooooooooooooooooo    &&&&&&&&&&",
"&&&&&&&&&&    oooooooooooooooooooooooooooooooooooo    &&&&&&&&&&",
"&&&&&&&&&&    oooooooooooooooooooooooooooooooooooo    &&&&&&&&&&",
"&&&&&&&&&&    oooooooooooooooooooooooooooooooooooo    &&&&&&&&&&",
"&&&&&&&&&&    oooooooooooooooooooooooooooooooooooo    &&&&&&&&&&",
"&&&&&&&&&&    oooooooooooooooooooooooooooooooooooo    &&&&&&&&&&",
"&&&&&&&&&&    oooooooooooooooooooooooooooooooooooo    &&&&&&&&&&",
"&&&&&&        oooooooooooooooooooooooooooooooo%%%%        &&&&&&",
"&&&&&&        oooooooooooooooooooooooooooooooo%%%%        &&&&&&",
"&&&&&&        oooooooooooooooooooooooooooooooo%%%%        &&&&&&",
"&&&&&&        oooooooooooooooooooooooooooooooo%%%%        &&&&&&",
"&&    ....OOOOoooooooooooooooooooooooooooooooo%%%%XXXXoooo    &&",
"&&    ....OOOOoooooooooooooooooooooooooooooooo%%%%XXXXoooo    &&",
"&&    ....OOOOoooooooooooooooooooooooooooooooo%%%%XXXXoooo    &&",
"&&    ....OOOOoooooooooooooooooooooooooooooooo%%%%XXXXoooo    &&",
"&&    OOOOOOOOXXXXooooooooooooooooooooooooooooXXXXoooooooo    &&",
"&&    OOOOOOOOXXXXooooooooooooooooooooooooooooXXXXoooooooo    &&",
"&&    OOOOOOOOXXXXooooooooooooooooooooooooooooXXXXoooooooo    &&",
"&&    OOOOOOOOXXXXooooooooooooooooooooooooooooXXXXoooooooo    &&",
"&&    OOOOOOOO....XXXXXXXXXXXXXXXXXXXXXXXXXXXXoooooooo    &&&&&&",
"&&    OOOOOOOO....XXXXXXXXXXXXXXXXXXXXXXXXXXXXoooooooo    &&&&&&",
"&&    OOOOOOOO....XXXXXXXXXXXXXXXXXXXXXXXXXXXXoooooooo    &&&&&&",
"&&    OOOOOOOO....XXXXXXXXXXXXXXXXXXXXXXXXXXXXoooooooo    &&&&&&",
"&&    OOOOOOOO............@@@@@@@@....@@@@    @@@@    &&&&&&&&&&",
"&&    OOOOOOOO............@@@@@@@@....@@@@    @@@@    &&&&&&&&&&",
"&&    OOOOOOOO............@@@@@@@@....@@@@    @@@@    &&&&&&&&&&",
"&&    OOOOOOOO............@@@@@@@@....@@@@    @@@@    &&&&&&&&&&",
"&&    OOOO    ....OOOOOOOO@@@@@@@@OOOO@@@@    @@@@    &&&&&&&&&&",
"&&    OOOO    ....OOOOOOOO@@@@@@@@OOOO@@@@    @@@@    &&&&&&&&&&",
"&&    OOOO    ....OOOOOOOO@@@@@@@@OOOO@@@@    @@@@    &&&&&&&&&&",
"&&    OOOO    ....OOOOOOOO@@@@@@@@OOOO@@@@    @@@@    &&&&&&&&&&",
"&&    OOOO        ....OOOOOOOO++++OOOO++++@@@@    &&&&&&&&&&&&&&",
"&&    OOOO        ....OOOOOOOO++++OOOO++++@@@@    &&&&&&&&&&&&&&",
"&&    OOOO        ....OOOOOOOO++++OOOO++++@@@@    &&&&&&&&&&&&&&",
"&&    OOOO        ....OOOOOOOO++++OOOO++++@@@@    &&&&&&&&&&&&&&",
"&&&&&&    &&&&&&&&    OOOO++++XXXXXXXXXXXX    &&&&&&&&&&&&&&&&&&",
"&&&&&&    &&&&&&&&    OOOO++++XXXXXXXXXXXX    &&&&&&&&&&&&&&&&&&",
"&&&&&&    &&&&&&&&    OOOO++++XXXXXXXXXXXX    &&&&&&&&&&&&&&&&&&",
"&&&&&&    &&&&&&&&    OOOO++++XXXXXXXXXXXX    &&&&&&&&&&&&&&&&&&",
"&&&&&&&&&&&&&&    @@@@++++    oooooooooooo        &&&&&&&&&&&&&&",
"&&&&&&&&&&&&&&    @@@@++++    oooooooooooo        &&&&&&&&&&&&&&",
"&&&&&&&&&&&&&&    @@@@++++    oooooooooooo        &&&&&&&&&&&&&&",
"&&&&&&&&&&&&&&    @@@@++++    oooooooooooo        &&&&&&&&&&&&&&",
"&&&&&&&&&&&&&&    @@@@@@@@    oooooooooooo        &&&&&&&&&&&&&&",
"&&&&&&&&&&&&&&    @@@@@@@@    oooooooooooo        &&&&&&&&&&&&&&",
"&&&&&&&&&&&&&&    @@@@@@@@    oooooooooooo        &&&&&&&&&&&&&&",
"&&&&&&&&&&&&&&    @@@@@@@@    oooooooooooo        &&&&&&&&&&&&&&",
"&&&&&&&&&&    ....            ....####    $$$$%%%%    &&&&&&&&&&",
"&&&&&&&&&&    ....            ....####    $$$$%%%%    &&&&&&&&&&",
"&&&&&&&&&&    ....            ....####    $$$$%%%%    &&&&&&&&&&",
"&&&&&&&&&&    ....            ....####    $$$$%%%%    &&&&&&&&&&",
"&&&&&&&&&&&&&&    ........        ####%%%%%%%%    &&&&&&&&&&&&&&",
"&&&&&&&&&&&&&&    ........        ####%%%%%%%%    &&&&&&&&&&&&&&",
"&&&&&&&&&&&&&&    ........        ####%%%%%%%%    &&&&&&&&&&&&&&",
"&&&&&&&&&&&&&&    ........        ####%%%%%%%%    &&&&&&&&&&&&&&"
};
