/* XPM */
static char *result[] = {
/* columns rows colors chars-per-pixel */
"64 64 12 1 ",
"  c #1C2F60",
". c #635D96",
"X c #4862E5",
"o c #36A6E0",
"O c #74DFF5",
"+ c #A6858F",
"@ c #FFB482",
"# c #FFE3AE",
"$ c #978BDE",
"% c #C4C7EE",
"& c gray99",
"* c None",
/* pixels */
"******************                            ******************",
"******************                            ******************",
"******************                            ******************",
"******************                            ******************",
"**************    OOOOOOOOOOOOOOOOOOOOOOOOOOOO    **************",
"**************    OOOOOOOOOOOOOOOOOOOOOOOOOOOO    **************",
"**************    OOOOOOOOOOOOOOOOOOOOOOOOOOOO    **************",
"**************    OOOOOOOOOOOOOOOOOOOOOOOOOOOO    **************",
"**********    OOOOOOOOOOOOOOOOOOOOOOOOOOOOOOOOOOOO    **********",
"**********    OOOOOOOOOOOOOOOOOOOOOOOOOOOOOOOOOOOO    **********",
"**********    OOOOOOOOOOOOOOOOOOOOOOOOOOOOOOOOOOOO    **********",
"**********    OOOOOOOOOOOOOOOOOOOOOOOOOOOOOOOOOOOO    **********",
"**********    OOOOOOOOOOOOOOOOOOOOOOOOOOOOOOOOOOOO    **********",
"**********    OOOOOOOOOOOOOOOOOOOOOOOOOOOOOOOOOOOO    **********",
"**********    OOOOOOOOOOOOOOOOOOOOOOOOOOOOOOOOOOOO    **********",
"**********    OOOOOOOOOOOOOOOOOOOOOOOOOOOOOOOOOOOO    **********",
"******        OOOOOOOOOOOOOOOOOOOOOOOOOOOOOOOO&&&&        ******",
"******        OOOOOOOOOOOOOOOOOOOOOOOOOOOOOOOO&&&&        ******",
"******        OOOOOOOOOOOOOOOOOOOOOOOOOOOOOOOO&&&&        ******",
"******        OOOOOOOOOOOOOOOOOOOOOOOOOOOOOOOO&&&&        ******",
"**    ....++++OOOOOOOOOOOOOOOOOOOOOOOOOOOOOOOO&&&&ooooOOOO    **",
"**    ....++++OOOOOOOOOOOOOOOOOOOOOOOOOOOOOOOO&&&&ooooOOOO    **",
"**    ....++++OOOOOOOOOOOOOOOOOOOOOOOOOOOOOOOO&&&&ooooOOOO    **",
"**    ....++++OOOOOOOOOOOOOOOOOOOOOOOOOOOOOOOO&&&&ooooOOOO    **",
"**    ++++++++ooooOOOOOOOOOOOOOOOOOOOOOOOOOOOOooooOOOOOOOO    **",
"**    ++++++++ooooOOOOOOOOOOOOOOOOOOOOOOOOOOOOooooOOOOOOOO    **",
"**    ++++++++ooooOOOOOOOOOOOOOOOOOOOOOOOOOOOOooooOOOOOOOO    **",
"**    ++++++++ooooOOOOOOOOOOOOOOOOOOOOOOOOOOOOooooOOOOOOOO    **",
"**    ++++++++....ooooooooooooooooooooooooooooOOOOOOOO    ******",
"**    ++++++++....ooooooooooooooooooooooooooooOOOOOOOO    ******",
"**    ++++++++....ooooooooooooooooooooooooooooOOOOOOOO    ******",
"**    ++++++++....ooooooooooooooooooooooooooooOOOOOOOO    ******",
"**    ++++++++............########....####    ####    **********",
"**    ++++++++............########....####    ####    **********",
"**    ++++++++............########....####    ####    **********",
"**    ++++++++............########....####    ####    **********",
"**    ++++    ....++++++++########++++####    ####    **********",
"**    ++++    ....++++++++########++++####    ####    **********",
"**    ++++    ....++++++++########++++####    ####    **********",
"**    ++++    ....++++++++########++++####    ####    **********",
"**    ++++        ....++++++++@@@@++++@@@@####    **************",
"**    ++++        ....++++++++@@@@++++@@@@####    **************",
"**    ++++        ....++++++++@@@@++++@@@@####    **************",
"**    ++++        ....++++++++@@@@++++@@@@####    **************",
"******    ********    XXXX@@@@    XXXX%%%%    ******************",
"******    ********    XXXX@@@@    XXXX%%%%    ******************",
"******    ********    XXXX@@@@    XXXX%%%%    ******************",
"******    ********    XXXX@@@@    XXXX%%%%    ******************",
"******************    XXXX####@@@@    &&&&    ******************",
"******************    XXXX####@@@@    &&&&    ******************",
"******************    XXXX####@@@@    &&&&    ******************",
"******************    XXXX####@@@@    &&&&    ******************",
"**************    ....    ########    &&&&        **************",
"**************    ....    ########    &&&&        **************",
"**************    ....    ########    &&&&        **************",
"**************    ....    ########    &&&&        **************",
"**********    %%%%$$$$                    ....$$$$    **********",
"**********    %%%%$$$$                    ....$$$$    **********",
"**********    %%%%$$$$                    ....$$$$    **********",
"**********    %%%%$$$$                    ....$$$$    **********",
"**************    %%%%%%%%            ....$$$$    **************",
"**************    %%%%%%%%            ....$$$$    **************",
"**************    %%%%%%%%            ....$$$$    **************",
"**************    %%%%%%%%            ....$$$$    **************"
};
