/* XPM */
static char * bush_xpm[] = {
"64 64 10 1",
" 	c #70A853",
".	c #082B0C",
"+	c #53A03B",
"@	c #347B2C",
"#	c #114517",
"$	c #21110D",
"%	c #342319",
"&	c #3E5B36",
"*	c #2F532D",
"=	c #503625",
"                                      ......                    ",
"                                      ......                    ",
"                ........            ..++++++..                  ",
"                ........            ..++++++..                  ",
"              ..++++++++..    ....  ++++++++++......            ",
"              ..++++++++..    ....  ++++++++++......            ",
"              ..++++++++++....@@@@..++++++++++..@@@@..          ",
"              ..++++++++++....@@@@..++++++++++..@@@@..          ",
"          ......++++++++++++..++++..++++++++..@@++++@@..        ",
"          ......++++++++++++..++++..++++++++..@@++++@@..        ",
"        ..@@++++@@++++++++++++++++@@++++++++++++++++++..        ",
"        ..@@++++@@++++++++++++++++@@++++++++++++++++++..        ",
"    ......++++++++++++++++++++++++++++++++++++++++++@@..        ",
"    ......++++++++++++++++++++++++++++++++++++++++++@@..        ",
"  ..++++..++++++++++++++++++++++++++++++++++++++++@@....        ",
"  ..++++..++++++++++++++++++++++++++++++++++++++++@@....        ",
"  ..++++++++++++++++++++++++++++++++++++++++++++++++++++..      ",
"  ..++++++++++++++++++++++++++++++++++++++++++++++++++++..      ",
"  ..++@@++++++++++++++++++++++++++++++++++++++++++++++++++..    ",
"  ..++@@++++++++++++++++++++++++++++++++++++++++++++++++++..    ",
"    ..++++++++++++++++++++++++++++++++++++++++++++++++++++++..  ",
"    ..++++++++++++++++++++++++++++++++++++++++++++++++++++++..  ",
"    ..++++++++++++++++++++++++++++++++++++++++++++@@++++++++..  ",
"    ..++++++++++++++++++++++++++++++++++++++++++++@@++++++++..  ",
"  ..@@++++@@++++++++++++++++++++++++++++++++++++++++@@++++++..  ",
"  ..@@++++@@++++++++++++++++++++++++++++++++++++++++@@++++++..  ",
"  ..++++++@@@@++++++++++++++++++++++++++@@++++++++++####@@@@..  ",
"  ..++++++@@@@++++++++++++++++++++++++++@@++++++++++####@@@@..  ",
"..@@++++@@++++++++++++++++++++++++++++++++##@@++++@@++++....    ",
"..@@++++@@++++++++++++++++++++++++++++++++##@@++++@@++++....    ",
"..@@@@####++++++++++++++++++++++++++++++++++####@@@@++++++..    ",
"..@@@@####++++++++++++++++++++++++++++++++++####@@@@++++++..    ",
"....####++++++++@@++++++++++++++++++++++++++++@@@@++++++@@##..  ",
"....####++++++++@@++++++++++++++++++++++++++++@@@@++++++@@##..  ",
"  ....##++++++++@@++++++++@@++++++++++++@@++++++@@@@@@@@@@@@..  ",
"  ....##++++++++@@++++++++@@++++++++++++@@++++++@@@@@@@@@@@@..  ",
"  ..@@@@++++++@@++++++++++++@@++++++++++++@@++++@@@@####@@@@..  ",
"  ..@@@@++++++@@++++++++++++@@++++++++++++@@++++@@@@####@@@@..  ",
"..@@++++@@@@@@@@++++@@++++++@@++++++++++++@@@@@@++++@@######..  ",
"..@@++++@@@@@@@@++++@@++++++@@++++++++++++@@@@@@++++@@######..  ",
"..##++++++++@@@@@@++++@@@@@@@@++++++++++@@@@@@@@++++++@@####..  ",
"..##++++++++@@@@@@++++@@@@@@@@++++++++++@@@@@@@@++++++@@####..  ",
"  ..@@++++++++@@++++++++@@@@++@@++++@@@@@@##++++@@++++@@....$$  ",
"  ..@@++++++++@@++++++++@@@@++@@++++@@@@@@##++++@@++++@@....$$  ",
"  $$..@@##++++@@++++++++@@++++++@@++++####@@++++++++@@@@##..%%$$",
"  $$..@@##++++@@++++++++@@++++++@@++++####@@++++++++@@@@##..%%$$",
"$$..@@@@@@##@@@@++++++@@##++++++++++++++..@@@@##++@@@@####..%%$$",
"$$..@@@@@@##@@@@++++++@@##++++++++++++++..@@@@##++@@@@####..%%$$",
"$$..@@@@@@..@@@@##@@@@####@@++++@@++++@@....##@@@@########..%%$$",
"$$..@@@@@@..@@@@##@@@@####@@++++@@++++@@....##@@@@########..%%$$",
"$$..@@@@##..####@@@@@@####@@@@@@@@##@@@@##..##@@@@..######..&&&&",
"$$..@@@@##..####@@@@@@####@@@@@@@@##@@@@##..##@@@@..######..&&&&",
"$$%%..####....##@@@@@@@@####@@@@@@########....####........&&&&&&",
"$$%%..####....##@@@@@@@@####@@@@@@########....####........&&&&&&",
"&&&&&&....%%..####..@@@@####..##########..%%%%....$$&&&&&&&&&&&&",
"&&&&&&....%%..####..@@@@####..##########..%%%%....$$&&&&&&&&&&&&",
"  &&&&**$$====......######..%%..........$$%%======%%$$&&&&&&&&  ",
"  &&&&**$$====......######..%%..........$$%%======%%$$&&&&&&&&  ",
"    &&&&$$======%%%%......======%%$$&&&&&&$$%%======$$&&&&&&    ",
"    &&&&$$======%%%%......======%%$$&&&&&&$$%%======$$&&&&&&    ",
"      &&&&&&==%%%%$$&&&&$$====%%$$&&&&&&&&&&&&&&&&&&&&&&        ",
"      &&&&&&==%%%%$$&&&&$$====%%$$&&&&&&&&&&&&&&&&&&&&&&        ",
"          &&&&&&&&&&&&&&&&&&&&&&&&&&&&&&&&&&&&&&&&&&            ",
"          &&&&&&&&&&&&&&&&&&&&&&&&&&&&&&&&&&&&&&&&&&            "};
