/* XPM */
static char * exit_open_xpm[] = {
"64 64 72 1",
" 	c #70A853",
".	c #694974",
"+	c #785384",
"@	c #529740",
"#	c #8E6A9A",
"$	c #BEABC4",
"%	c #81796C",
"&	c #7B7264",
"*	c #746A5D",
"=	c #747558",
"-	c #7A6F61",
";	c #6C5E51",
">	c #729955",
",	c #827E72",
"'	c #746E61",
")	c #89867A",
"!	c #726759",
"~	c #7C766A",
"{	c #8C8C81",
"]	c #8B897D",
"^	c #868479",
"/	c #786553",
"(	c #71624E",
"_	c #796D5D",
":	c #7E7C71",
"<	c #7D796D",
"[	c #6C655A",
"}	c #5B4535",
"|	c #858276",
"1	c #827769",
"2	c #53CEE7",
"3	c #6B5B4B",
"4	c #65584B",
"5	c #736354",
"6	c #898577",
"7	c #807567",
"8	c #695645",
"9	c #6D6253",
"0	c #767165",
"a	c #777468",
"b	c #908D81",
"c	c #645344",
"d	c #705D4D",
"e	c #604B37",
"f	c #5F4837",
"g	c #543C2B",
"h	c #719456",
"i	c #4A2A16",
"j	c #688943",
"k	c #635649",
"l	c #678542",
"m	c #583D2C",
"n	c #48210B",
"o	c #70684E",
"p	c #79705F",
"q	c #370F00",
"r	c #655D51",
"s	c #6E685E",
"t	c #472410",
"u	c #462812",
"v	c #6C8C51",
"w	c #5C4B3C",
"x	c #63503C",
"y	c #6E6A61",
"z	c #483311",
"A	c #6C8E4E",
"B	c #5A5F39",
"C	c #513520",
"D	c #595229",
"E	c #6B954D",
"F	c #503826",
"G	c #4F3C2C",
"                                                                ",
"                                                                ",
"                          ......++++++..                        ",
"                          ......++++++..                        ",
"            @@        ........++######++..                      ",
"            @@        ........++######++..                      ",
"          @@  @@    ......++++++..++++..++....                  ",
"          @@  @@    ......++++++..++++..++....                  ",
"            @@    ......######..++++++++..++++..                ",
"            @@    ......######..++++++++..++++..                ",
"                  ....++$$....++++++++++..####..    @@          ",
"                  ....++$$....++++++++++..####..    @@          ",
"                ....++++..++++##......$$++....##..@@  @@        ",
"                ....++++..++++##......$$++....##..@@  @@        ",
"                ....++++..++++..++++++..$$....++..  @@          ",
"                ....++++..++++..++++++..$$....++..  @@          ",
"            %%&&....++++..++++..++######..++++....**==          ",
"            %%&&....++++..++++..++######..++++....**==          ",
"          &&%%--....####..####..++....##++....##..----;;        ",
"          &&%%--....####..####..++....##++....##..----;;        ",
"      >>,,''&&))....####..####..++++++..##....$$..''!!,,&&      ",
"      >>,,''&&))....####..####..++++++..##....$$..''!!,,&&      ",
"      ~~--%%{{]]....++++..++++####++++++..$$$$++..^^----~~//    ",
"      ~~--%%{{]]....++++..++++####++++++..$$$$++..^^----~~//    ",
"  >>((!!;;--%%,,....++++++....++++++++##..++++##..~~--//__((>>>>",
"  >>((!!;;--%%,,....++++++....++++++++##..++++##..~~--//__((>>>>",
"--^^^^,,::<<::[[}}........++++##......####......--,,,,,,||||))//",
"--^^^^,,::<<::[[}}........++++##......####......--,,,,,,||||))//",
"11||2222,,,,))3344....++++....++######++..++++..55^^,,66222266//",
"11||2222,,,,))3344....++++....++######++..++++..55^^,,66222266//",
"77))&&22||,,{{8899''....++####..++++++..++....0055,,6622__22]]//",
"77))&&22||,,{{8899''....++####..++++++..++....0055,,6622__22]]//",
"1122))))))66]]88[[aaaa**......++######++..aa''''99]]]]]]))))bb//",
"1122))))))66]]88[[aaaa**......++######++..aa''''99]]]]]]))))bb//",
"11{{]]{{66~~~~cc99::<<''00......++++++..''aa00[[88~~&&%%]],,]]dd",
"11{{]]{{66~~~~cc99::<<''00......++++++..''aa00[[88~~&&%%]],,]]dd",
"33''999988,,||::**<<<<''**aa~~~~~~~~::00**aa00;;<<::&&44;;;;''ee",
"33''999988,,||::**<<<<''**aa~~~~~~~~::00**aa00;;<<::&&44;;;;''ee",
"cc}}&&~~33--))||||&&00<<0000''&&''**!!''~~''99~~,,^^!!55,,11ffgg",
"cc}}&&~~33--))||||&&00<<0000''&&''**!!''~~''99~~,,^^!!55,,11ffgg",
"  hh;;^^<<88<<))^^))&&!!__<<<<<<<<<<~~&&!!&&,,||{{''}}<<{{;;iijj",
"  hh;;^^<<88<<))^^))&&!!__<<<<<<<<<<~~&&!!&&,,||{{''}}<<{{;;iijj",
"    [[''%%;;kk**]]))66<<__55____****!!__,,]]]]]]''ff33~~~~iill  ",
"    [[''%%;;kk**]]))66<<__55____****!!__,,]]]]]]''ff33~~~~iill  ",
"      cc<<{{~~33''||]]]]11||))6666||%%~~{{{{,,;;cc'',,**mmnn    ",
"      cc<<{{~~33''||]]]]11||))6666||%%~~{{{{,,;;cc'',,**mmnn    ",
"      hh99aa]]))5588oopp77))662222||))--__88cc44<<,,''ffqq      ",
"      hh99aa]]))5588oopp77))662222||))--__88cc44<<,,''ffqq      ",
"        hh33**::||::99ff55bb]]22%%||]]((ff55||66~~rrggnn        ",
"        hh33**::||::99ff55bb]]22%%||]]((ff55||66~~rrggnn        ",
"            44ccss::^^,,&&bb]]2222))bb!!<<||~~33}}ttuu          ",
"            44ccss::^^,,&&bb]]2222))bb!!<<||~~33}}ttuu          ",
"              vvccwwkkkkxxaassyy[[[[00ffxxxxggiizz              ",
"              vvccwwkkkkxxaassyy[[[[00ffxxxxggiizz              ",
"                  AABBgg8844kkkk444444ffCCuuDD                  ",
"                  AABBgg8844kkkk444444ffCCuuDD                  ",
"    @@                  EEFFGGGGGG}}uuqq                        ",
"    @@                  EEFFGGGGGG}}uuqq                        ",
"  @@  @@                                                        ",
"  @@  @@                                                        ",
"    @@                                                          ",
"    @@                                                          ",
"                                                                ",
"                                                                "};
