/* XPM */
static char * exit_closed_xpm[] = {
"64 64 94 2",
"  	c #70A853",
". 	c #529740",
"+ 	c #717755",
"@ 	c #747B59",
"# 	c #6F714E",
"$ 	c #70A053",
"% 	c #729954",
"& 	c #89877B",
"* 	c #847E71",
"= 	c #7C796C",
"- 	c #786553",
"; 	c #717954",
"> 	c #736454",
", 	c #878276",
"' 	c #8D8C7F",
") 	c #71614E",
"! 	c #6B5B4C",
"~ 	c #736A5D",
"{ 	c #66694F",
"] 	c #796C5D",
"^ 	c #7A7264",
"/ 	c #898677",
"( 	c #8B887C",
"_ 	c #7A6F61",
": 	c #715E4D",
"< 	c #81796D",
"[ 	c #827F70",
"} 	c #7C7669",
"| 	c #8D8B7C",
"1 	c #8E8D81",
"2 	c #767165",
"3 	c #87867B",
"4 	c #726759",
"5 	c #747558",
"6 	c #838073",
"7 	c #868477",
"8 	c #634D3C",
"9 	c #6D665A",
"0 	c #6B5E51",
"a 	c #838176",
"b 	c #739757",
"c 	c #837F74",
"d 	c #635344",
"e 	c #5B4534",
"f 	c #695646",
"g 	c #695847",
"h 	c #7F7D73",
"i 	c #8B8B80",
"j 	c #5F5245",
"k 	c #554232",
"l 	c #6C6254",
"m 	c #777468",
"n 	c #6E685E",
"o 	c #848379",
"p 	c #70684E",
"q 	c #857F74",
"r 	c #746E61",
"s 	c #65584B",
"t 	c #807567",
"u 	c #83786A",
"v 	c #827769",
"w 	c #7D7B70",
"x 	c #6E6A61",
"y 	c #604B37",
"z 	c #5F4837",
"A 	c #503826",
"B 	c #4C2611",
"C 	c #688943",
"D 	c #5C4B3C",
"E 	c #4A2A16",
"F 	c #678542",
"G 	c #583D2C",
"H 	c #45270A",
"I 	c #709355",
"J 	c #79705F",
"K 	c #401802",
"L 	c #908D81",
"M 	c #655D51",
"N 	c #48210B",
"O 	c #472410",
"P 	c #482D0E",
"Q 	c #6C8C51",
"R 	c #645648",
"S 	c #63503C",
"T 	c #543C2B",
"U 	c #483311",
"V 	c #6C8E4E",
"W 	c #5A5F39",
"X 	c #513520",
"Y 	c #462812",
"Z 	c #595229",
"` 	c #6B954D",
" .	c #4F3C2C",
"..	c #370F00",
"                                                                                                                                ",
"                                                                                                                                ",
"                                                                                                                                ",
"                                                                                                                                ",
"                        . .                                                                                                     ",
"                        . .                                                                                                     ",
"                    . .     . .                                                                                                 ",
"                    . .     . .                                                                                                 ",
"                        . .                         + + + + @ @ @ @ + + # # $ $                                                 ",
"                        . .                         + + + + @ @ @ @ + + # # $ $                                                 ",
"                                                % % & & & & * * = = & & & & - -                         . .                     ",
"                                                % % & & & & * * = = & & & & - -                         . .                     ",
"                                        ; ; > > - - & & & & = = = = , , ' ' ) ) ! ! ~ ~ ; ;         . .     . .                 ",
"                                        ; ; > > - - & & & & = = = = , , ' ' ) ) ! ! ~ ~ ; ;         . .     . .                 ",
"                                { { ] ] ] ] ^ ^ ] ] & & / / & & & & / / ( ( ] ] ^ ^ _ _ _ _ : :         . .                     ",
"                                { { ] ] ] ] ^ ^ ] ] & & / / & & & & / / ( ( ] ] ^ ^ _ _ _ _ : :         . .                     ",
"                        < < = = ] ] _ _ [ [ & & } } & & | | | | | | 1 1 & & 2 2 3 3 , , * * ] ] 4 4 ~ ~ 5 5                     ",
"                        < < = = ] ] _ _ [ [ & & } } & & | | | | | | 1 1 & & 2 2 3 3 , , * * ] ] 4 4 ~ ~ 5 5                     ",
"                    = = = = _ _ 6 6 7 7 & & , , 8 8 4 4 9 9 ! ! 0 0 ~ ~ } } ^ ^ 3 3 , , a a , , ^ ^ ^ ^ ^ ^ : :                 ",
"                    = = = = _ _ 6 6 7 7 & & , , 8 8 4 4 9 9 ! ! 0 0 ~ ~ } } ^ ^ 3 3 , , a a , , ^ ^ ^ ^ ^ ^ : :                 ",
"            b b c c ~ ~ 2 2 3 3 , , , , ~ ~ d d e e e e 8 8 8 8 d d f f 8 8 g g _ _ = = a a h h a a _ _ 4 4 , , _ _             ",
"            b b c c ~ ~ 2 2 3 3 , , , , ~ ~ d d e e e e 8 8 8 8 d d f f 8 8 g g _ _ = = a a h h a a _ _ 4 4 , , _ _             ",
"            = = _ _ < < i i | | , , j j k k d d l l 4 4 ~ ~ 2 2 2 2 m m 4 4 l l 4 4 ! ! n n o o [ [ a a ^ ^ _ _ = = p p         ",
"            = = _ _ < < i i | | , , j j k k d d l l 4 4 ~ ~ 2 2 2 2 m m 4 4 l l 4 4 ! ! n n o o [ [ a a ^ ^ _ _ = = p p         ",
"    % % ) ) ~ ~ ! ! _ _ = = q q d d k k 9 9 ~ ~ r r ~ ~ ~ ~ _ _ 2 2 9 9 _ _ m m 2 2 2 2 0 0 l l [ [ 2 2 2 2 4 4 ] ] > > % % % % ",
"    % % ) ) ~ ~ ! ! _ _ = = q q d d k k 9 9 ~ ~ r r ~ ~ ~ ~ _ _ 2 2 9 9 _ _ m m 2 2 2 2 0 0 l l [ [ 2 2 2 2 4 4 ] ] > > % % % % ",
"^ ^ , , , , [ [ h h = = = = 4 4 e e ~ ~ ~ ~ l l s s 0 0 l l l l 9 9 l l 9 9 l l 9 9 2 2 = = f f ^ ^ , , [ [ , , , , , , & & > > ",
"^ ^ , , , , [ [ h h = = = = 4 4 e e ~ ~ ~ ~ l l s s 0 0 l l l l 9 9 l l 9 9 l l 9 9 2 2 = = f f ^ ^ , , [ [ , , , , , , & & > > ",
"t t , , = = = = [ [ [ [ 3 3 ! ! s s r r ~ ~ l l 9 9 2 2 2 2 2 2 2 2 m m m m 2 2 0 0 r r m m ~ ~ > > 3 3 [ [ , , = = = = & & - - ",
"t t , , = = = = [ [ [ [ 3 3 ! ! s s r r ~ ~ l l 9 9 2 2 2 2 2 2 2 2 m m m m 2 2 0 0 r r m m ~ ~ > > 3 3 [ [ , , = = = = & & - - ",
"t t 3 3 2 2 _ _ , , , , | | f f l l 2 2 2 2 0 0 ~ ~ m m m m 2 2 2 2 m m 2 2 2 2 9 9 _ _ r r r r > > , , , , & & _ _ ^ ^ | | - - ",
"t t 3 3 2 2 _ _ , , , , | | f f l l 2 2 2 2 0 0 ~ ~ m m m m 2 2 2 2 m m 2 2 2 2 9 9 _ _ r r r r > > , , , , & & _ _ ^ ^ | | - - ",
"u u ( ( & & 3 3 & & & & | | f f l l m m m m ~ ~ ~ ~ = = = = m m m m m m m m 2 2 ~ ~ 2 2 2 2 r r > > & & & & ( ( & & & & 1 1 > > ",
"u u ( ( & & 3 3 & & & & | | f f l l m m m m ~ ~ ~ ~ = = = = m m m m m m m m 2 2 ~ ~ 2 2 2 2 r r > > & & & & ( ( & & & & 1 1 > > ",
"v v 1 1 ( ( ( ( , , = = = = 8 8 9 9 w w = = r r _ _ = = m m = = = = = = = = = = ~ ~ m m 2 2 9 9 ! ! = = } } < < ( ( * * ( ( > > ",
"v v 1 1 ( ( ( ( , , = = = = 8 8 9 9 w w = = r r _ _ = = m m = = = = = = = = = = ~ ~ m m 2 2 9 9 ! ! = = } } < < ( ( * * ( ( > > ",
"! ! r r 9 9 l l g g [ [ a a [ [ ~ ~ = = h h r r ~ ~ m m m m m m = = = = = = 2 2 ~ ~ = = 2 2 l l = = = = ^ ^ d d l l l l x x y y ",
"! ! r r 9 9 l l g g [ [ a a [ [ ~ ~ = = h h r r ~ ~ m m m m m m = = = = = = 2 2 ~ ~ = = 2 2 l l = = = = ^ ^ d d l l l l x x y y ",
"d d z z ^ ^ = = ! ! ] ] ( ( a a o o ^ ^ 2 2 = = 2 2 _ _ _ _ _ _ ^ ^ ~ ~ 4 4 _ _ m m _ _ l l = = c c o o ~ ~ l l , , < < z z A A ",
"d d z z ^ ^ = = ! ! ] ] ( ( a a o o ^ ^ 2 2 = = 2 2 _ _ _ _ _ _ ^ ^ ~ ~ 4 4 _ _ m m _ _ l l = = c c o o ~ ~ l l , , < < z z A A ",
"    % % l l 3 3 = = d d = = & & 3 3 & & ^ ^ ~ ~ ^ ^ = = = = = = = = = = = = 2 2 4 4 ^ ^ c c o o ( ( 2 2 z z = = i i 0 0 B B C C ",
"    % % l l 3 3 = = d d = = & & 3 3 & & ^ ^ ~ ~ ^ ^ = = = = = = = = = = = = 2 2 4 4 ^ ^ c c o o ( ( 2 2 z z = = i i 0 0 B B C C ",
"        l l 2 2 < < 0 0 d d ] ] ( ( & & 7 7 < < ~ ~ - - _ _ ] ] ~ ~ ] ] 4 4 ~ ~ * * & & ( ( | | 2 2 D D ! ! } } m m E E F F     ",
"        l l 2 2 < < 0 0 d d ] ] ( ( & & 7 7 < < ~ ~ - - _ _ ] ] ~ ~ ] ] 4 4 ~ ~ * * & & ( ( | | 2 2 D D ! ! } } m m E E F F     ",
"            d d = = ( ( ^ ^ ! ! ] ] o o ( ( ( ( u u , , ( ( / / , , , , < < = = i i ( ( [ [ 0 0 D D _ _ [ [ 4 4 G G H H         ",
"            d d = = ( ( ^ ^ ! ! ] ] o o ( ( ( ( u u , , ( ( / / , , , , < < = = i i ( ( [ [ 0 0 D D _ _ [ [ 4 4 G G H H         ",
"            I I l l } } ( ( & & - - f f l l J J ^ ^ & & / / * * < < , , & & ^ ^ ] ] ! ! d d s s = = [ [ ~ ~ e e K K             ",
"            I I l l } } ( ( & & - - f f l l J J ^ ^ & & / / * * < < , , & & ^ ^ ] ] ! ! d d s s = = [ [ ~ ~ e e K K             ",
"                I I 0 0 ~ ~ [ [ , , [ [ > > 8 8 > > L L | | < < v v / / | | ) ) y y 4 4 , , & & = = M M A A N N                 ",
"                I I 0 0 ~ ~ [ [ , , [ [ > > 8 8 > > L L | | < < v v / / | | ) ) y y 4 4 , , & & = = M M A A N N                 ",
"                        s s d d ~ ~ w w a a [ [ ^ ^ L L | | | | ( ( & & L L - - = = 7 7 m m ! ! e e O O P P                     ",
"                        s s d d ~ ~ w w a a [ [ ^ ^ L L | | | | ( ( & & L L - - = = 7 7 m m ! ! e e O O P P                     ",
"                            Q Q d d D D R R R R 8 8 2 2 n n n n 9 9 9 9 r r z z S S d d T T E E U U                             ",
"                            Q Q d d D D R R R R 8 8 2 2 n n n n 9 9 9 9 r r z z S S d d T T E E U U                             ",
"                                    V V W W T T d d s s R R s s s s s s M M z z X X Y Y Z Z                                     ",
"                                    V V W W T T d d s s R R s s s s s s M M z z X X Y Y Z Z                                     ",
"        . .                                     ` ` A A  . .T T  . .T T E E ....                                                ",
"        . .                                     ` ` A A  . .T T  . .T T E E ....                                                ",
"    . .     . .                                                                                                                 ",
"    . .     . .                                                                                                                 ",
"        . .                                                                                                                     ",
"        . .                                                                                                                     ",
"                                                                                                                                ",
"                                                                                                                                "};
