/* XPM */
static char * sushi_xpm[] = {
"64 64 19 1",
" 	c #70A853",
".	c #529740",
"+	c #FFA1EE",
"@	c #2E6D31",
"#	c #390C20",
"$	c #1F492B",
"%	c #DEEEEE",
"&	c #100839",
"*	c #6A10AC",
"=	c #31045A",
"-	c #DE4CF6",
";	c #6EA652",
">	c #6FA752",
",	c #AC2CD5",
"'	c #6FA753",
")	c #6FA652",
"!	c #080810",
"~	c #6EA552",
"{	c #6CA651",
"                                                                ",
"                                                                ",
"                                                                ",
"                                                                ",
"                                                                ",
"                                                                ",
"                                                                ",
"                                                                ",
"                                                                ",
"                                                                ",
"                                                    ..          ",
"                                                    ..          ",
"                                                  ..  ..        ",
"                                          ++      ..  ..        ",
"            @@@@@@                        ++        ..          ",
"            @@@@@@              ######    ++        ..          ",
"              $$@@@@    @@@@    ######    ++                    ",
"              $$@@@@    @@@@  ##++++++##  %%                    ",
"                $$@@  @@@@    ##++++++##  %%                    ",
"                $$@@  @@@@  ####++++++%%##%%                    ",
"              ....$$@@$$    ####++++++%%##%%                    ",
"              ....$$@@$$  ##&&##++++%%%%%%%%%%%%++++            ",
"            ........$$..  ##&&##++++%%%%%%%%%%%%++++            ",
"            ........$$..####&&&&++++++%%%%%%##                  ",
"                  ......####&&&&++++++%%%%%%##                  ",
"                  ......##&&&&**********%%%%%%                  ",
"                        ##&&&&**********%%%%%%                  ",
"                      &&======**********++%%++&&                ",
"                      &&======**********++%%++&&                ",
"                      &&======**********++++++##                ",
"                      &&======**********++++++##                ",
"                      &&======**********------##                ",
"                      &&======**********------##                ",
"                      &&**====##**********----##                ",
"                      &&**====##**********----##                ",
"                      &&******####********----##                ",
"      ..              &&******####********----##                ",
"      ..              &&******##########**--,,##                ",
"    ..  ..            &&******##########**--,,##                ",
"    ..  ..              &&,,,,======**,,,,--##                  ",
"      ..                &&,,,,======**,,,,--##                  ",
"      ..          !!!!!!&&,,,,====****,,,,,,##                  ",
"                  !!!!!!&&,,,,====****,,,,,,##                  ",
"              !!!!!!!!!!!!&&,,====****,,,,##~                   ",
"              !!!!!!!!!!!!&&,,====****,,,,##                    ",
"              !!!!!!!!!!!!!!&&==******,,##{                     ",
"              !!!!!!!!!!!!!!&&==******,,##                      ",
"                !!!!!!!!!!!!!!&&&&&&&&##                        ",
"                !!!!!!!!!!!!!!&&&&&&&&##                        ",
"                                                                ",
"                                                                ",
"                                                                ",
"                @@                                              ",
"                @@                                              ",
"          @@  @@                                                ",
"          @@  @@                                                ",
"          ..$$$$..                                              ",
"          ..$$$$..                                              ",
"                                                                ",
"                                                                ",
"                                                                ",
"                                                                ",
"                                                                ",
"                                                                "};
