/* XPM */
static char * grass_xpm[] = {
"64 64 4 1",
" 	c #70A853",
".	c #529740",
"+	c #2E6D31",
"@	c #1F492B",
"                                                                ",
"                                                                ",
"                                                                ",
"                                                                ",
"                                                                ",
"                                                                ",
"                                                                ",
"                                                                ",
"                                                                ",
"                                                                ",
"                                                    ..          ",
"                                                    ..          ",
"                                                  ..  ..        ",
"                                                  ..  ..        ",
"            ++++++                                  ..          ",
"            ++++++                                  ..          ",
"              @@++++    ++++                                    ",
"              @@++++    ++++                                    ",
"                @@++  ++++                                      ",
"                @@++  ++++                                      ",
"              ....@@++@@                                        ",
"              ....@@++@@                                        ",
"            ........@@..                                        ",
"            ........@@..                                        ",
"                  ......                                        ",
"                  ......                                        ",
"                                                                ",
"                                                                ",
"                                                                ",
"                                                                ",
"                                                                ",
"                                                                ",
"                                                                ",
"                                                                ",
"                                                                ",
"                                                                ",
"      ..                              ++            ++          ",
"      ..                              ++            ++          ",
"    ..  ..                              ++        ++++          ",
"    ..  ..                              ++        ++++          ",
"      ..                                @@  ++  ++++            ",
"      ..                                @@  ++  ++++            ",
"                                      ..@@++@@..@@..            ",
"                                      ..@@++@@..@@..            ",
"                                        ............            ",
"                                        ............            ",
"                                                                ",
"                                                                ",
"                                                                ",
"                                                                ",
"                                                                ",
"                                                                ",
"                ++                                              ",
"                ++                                              ",
"          ++  ++                                                ",
"          ++  ++                                                ",
"          ..@@@@..                                              ",
"          ..@@@@..                                              ",
"                                                                ",
"                                                                ",
"                                                                ",
"                                                                ",
"                                                                ",
"                                                                "};
