/* XPM */
static char * trap_xpm[] = {
"64 64 111 2",
"  	c #70A853",
". 	c #529740",
"+ 	c #2E6D31",
"@ 	c #1F492B",
"# 	c #000000",
"$ 	c #020202",
"% 	c #444444",
"& 	c #020101",
"* 	c #353535",
"= 	c #020100",
"- 	c #020200",
"; 	c #090000",
"> 	c #0C0000",
", 	c #0E0000",
"' 	c #020000",
") 	c #252525",
"! 	c #030201",
"~ 	c #030402",
"{ 	c #030403",
"] 	c #020403",
"^ 	c #010101",
"/ 	c #080908",
"( 	c #090A07",
"_ 	c #030304",
": 	c #040200",
"< 	c #0A0000",
"[ 	c #0B0100",
"} 	c #030401",
"| 	c #030300",
"1 	c #040201",
"2 	c #010000",
"3 	c #070504",
"4 	c #0E0C0B",
"5 	c #0B0909",
"6 	c #0C0A08",
"7 	c #010806",
"8 	c #070707",
"9 	c #050501",
"0 	c #000201",
"a 	c #000202",
"b 	c #010102",
"c 	c #020203",
"d 	c #090607",
"e 	c #070401",
"f 	c #050300",
"g 	c #080201",
"h 	c #060606",
"i 	c #000102",
"j 	c #030303",
"k 	c #080906",
"l 	c #1F1F1F",
"m 	c #141414",
"n 	c #292A24",
"o 	c #030002",
"p 	c #050504",
"q 	c #020301",
"r 	c #030100",
"s 	c #020404",
"t 	c #000303",
"u 	c #030204",
"v 	c #040506",
"w 	c #010200",
"x 	c #0C0A07",
"y 	c #050406",
"z 	c #060308",
"A 	c #060509",
"B 	c #030202",
"C 	c #060604",
"D 	c #060605",
"E 	c #030305",
"F 	c #080103",
"G 	c #0C0305",
"H 	c #080400",
"I 	c #060405",
"J 	c #070400",
"K 	c #050200",
"L 	c #090300",
"M 	c #4A4949",
"N 	c #080000",
"O 	c #070706",
"P 	c #020204",
"Q 	c #070601",
"R 	c #070705",
"S 	c #060500",
"T 	c #080502",
"U 	c #050000",
"V 	c #060000",
"W 	c #020302",
"X 	c #0A0909",
"Y 	c #000100",
"Z 	c #191714",
"` 	c #090705",
" .	c #040202",
"..	c #070603",
"+.	c #000001",
"@.	c #050206",
"#.	c #010301",
"$.	c #000200",
"%.	c #050505",
"&.	c #030001",
"*.	c #050302",
"=.	c #060403",
"-.	c #040402",
";.	c #0A0804",
">.	c #060402",
",.	c #030000",
"'.	c #060702",
").	c #010003",
"!.	c #0B0000",
"~.	c #070000",
"{.	c #000500",
"                                                                                                                                ",
"                                                                                                                                ",
"                                                                                                                                ",
"                                                                                                                                ",
"                                                                                                                                ",
"                                                                                                                                ",
"                                                                                                                                ",
"                                                                                                                                ",
"                                                                                                          . .                   ",
"                                                                                                          . .                   ",
"                                                                                                      . .     . .               ",
"                                                                                                      . .     . .               ",
"                                                                                                          . .                   ",
"                                    + +                                                                   . .                   ",
"                                    + +                                                                                         ",
"                        + +     + +                                                                                             ",
"                        + +     + +                                                                                             ",
"                        . . @ @ @ @ . .                   # # # $ % % % % % % % % % % % # # #                                   ",
"                        . . @ @ @ @ . .                 $ % % % & * * * * * * % % % % % % % #                                   ",
"                                                        $ % * * * = - - ; > , * * % % % % % % ' #                               ",
"                                                        $ % * * * * * * ) ) ) * * * * % % % % % % !                             ",
"                                                  ~ { ] % * * * * * * * = ^ / ) ) ) ) * * % % % % % (                           ",
"                                                _ * % % * * * * * : = =       < ; < [ ) ) * % % % % }                           ",
"                                                # % * * * * * # #                   # ) ) % % % % % % #                         ",
"                                                  | * * * * * #                       1 * % % % % % % 2 3                       ",
"                                                    4 : * # #                       5 % % % % % % % % % 6                       ",
"                                            # % % * ) )                         7 % % % % % % % % % % % * 8                     ",
"                                              9 * * ) )                           0 a b b c # % % % % * * d                     ",
"                                                e ) ) )                                       2 % % % * * f                     ",
"                                            $ # ) ) ) #                                     g % % % % * * *                     ",
"                                    h c c   # # # ) # #                                   i % % % % % * * *                     ",
"                          j k       b * l # * * m # # #                                   % % % % % % * * *                     ",
"                          j % n #   c l # * l l # # # #                                   , , % % % * * * * o                   ",
"                  ^       j % * #   p l # * l m # ) ) #                                     q % % % * * * * o                   ",
"                ^ %       $ * ) ) r ' m # m # # * * * )                                       s t u v * * * l q                 ",
"                w % * x # ^ ) ) l l m # # # # ) * % % % # # # # # # #                         # # $ * * * ) m o                 ",
"              y % * l * * z ) l m m #       # # ) % % % # # l l l l l #                     ^ % % * * * * ) m b                 ",
"              A % * ) ) ) # l m m B B         # ) * % % l l l ) ) ) l l #                   # % % % % * * ) m b                 ",
"              y * l ) ) ) l m B B               # ) * # l ) ) ) ) ) ) ) l #                   # # % * * * ) m o                 ",
"        . .   C l ) ) # l m B                     # # l ) ) * * ) ) ) ) l l #                     # # * * ) m o                 ",
"        . .   # l ) # l B B                       # l l ) * * * * ) ) ) ) l l #                     # * * ) m o                 ",
"    . .     . # l ) # B B                         # l ) * * * % * * * ) ) ) l #                   # * * ) l o                   ",
"    . .     . D l ) # #                           # l ) * * % % % % * * ) ) l #                   > % * ) l o                   ",
"        . .   E l ) #     F $                     # l ) ) ) * * * % * * ) ) l #                   G % * l m                     ",
"        . .   E l ) # r > % H                     # l l ) ) ) ) * * * * ) l l #                     I ) l }                     ",
"              E l ) # ) # % J       + +             # l ) ) ) ) ) * * ) l l # ) #             # $ K * l m C                     ",
"              E m l # ) * % L       + +               # l ) ) ) ) ) ) ) l # % % ) # M       # % * * ) l m #                     ",
"              y m m ) # * % N # + +                     l l l ) ) ) l l # % % % * ) #       j % * ) l m O                       ",
"                P Q l ) * * # % # + #                   # # l l l l l # ) * % % % * ) # #     # # l m # R                       ",
"                b S l ) ) * % % # # % .                     # # # # #   ) ) * % % % * ) # # # * * l T                           ",
"                    m l ) ) * % # % % #                                 # # ) * % * * # % % % U < V                             ",
"                    m l ) ) * * % % % % #                                 # # ) * * # % * : : W                                 ",
"                    X m m l ) ) ) ) * % #     # % #       # #     # Y #       # # # % * Z * * #                                 ",
"                      ` # m l l l ) ) * #   # # * % #   # % % #   # % %      .) # # % : m * l #                                 ",
"                          ..m m m ) ) ) ) # * * * * # # # % * #   +.% * Y Y @.) ) l # w m l l #                                 ",
"                          # m m m l l ) ) ) ) ) ) ) * * % * * #   #.* * % % * ) ) l m $.m l #                                   ",
"                            %.&.r m m l l l ) ) ) ) ) ) ) ) ) # # # * ) * * ) ) l l m r m l #                                   ",
"                                  %.*.m m m l l l l l l ) ) ) ) ) ) ) ) l l l l m m =.3 # #                                     ",
"                                      j -.m m m m m m m l l l l l l l l m m m m ;.#                                             ",
"                                          >.= = # ,.'.> m m m m m m m m , _ # ).                                                ",
"                                                        2 # ' Y !.~.V {.                                                        ",
"                                                                                                                                ",
"                                                                                                                                ",
"                                                                                                                                "};
