/* XPM */
static char * water_top_left+_xpm[] = {
"64 64 5 1",
" 	c #38608A",
".	c #614A29",
"+	c #B1965E",
"@	c #BDA982",
"#	c #70A853",
"                                                                ",
"                                                                ",
"                                                                ",
"                                                                ",
"                                                                ",
"                                                                ",
"                                                                ",
"                                                                ",
"                                                                ",
"                                                                ",
"                                                                ",
"                                                                ",
"                                                                ",
"                                                                ",
"                                                                ",
"                                                                ",
"                                                                ",
"                                                                ",
"                                                                ",
"                                                                ",
"                                                                ",
"                                                                ",
"                                                                ",
"                                                                ",
"                                                                ",
"                                                                ",
"                                                                ",
"                                                                ",
"                                                                ",
"                                                                ",
"                                                                ",
"                                                                ",
"                                                                ",
"                                                                ",
"                                                              ..",
"                                                              ..",
"                                                    ............",
"                                                    ............",
"                                              ........++++++@@@@",
"                                              ........++++++@@@@",
"                                          ......++++++@@@@@@@@@@",
"                                          ......++++++@@@@@@@@@@",
"                                        ....++++++@@@@@@@@@@@@@@",
"                                        ....++++++@@@@@@@@@@@@@@",
"                                        ..++++@@@@@@@@@@@@######",
"                                        ..++++@@@@@@@@@@@@######",
"                                      ....++@@@@@@@@@@@@########",
"                                      ....++@@@@@@@@@@@@########",
"                                    ....++@@@@@@@@@@############",
"                                    ....++@@@@@@@@@@############",
"                                    ..++@@@@@@@@@@##############",
"                                    ..++@@@@@@@@@@##############",
"                                  ....@@@@@@@@##################",
"                                  ....@@@@@@@@##################",
"                                  ..++@@@@@@####################",
"                                  ..++@@@@@@####################",
"                                ....@@@@@@@@####################",
"                                ....@@@@@@@@####################",
"                                ..++@@@@@@######################",
"                                ..++@@@@@@######################",
"                                ..++@@@@########################",
"                                ..++@@@@########################",
"                                ..++@@@@########################",
"                                ..++@@@@########################"};
