/* XPM */
static char * water_bottom_right_xpm[] = {
"64 64 10 1",
" 	c #70A853",
".	c #529740",
"+	c #BDA982",
"@	c #B1965E",
"#	c #614A29",
"$	c #8B6F3C",
"%	c #6B888F",
"&	c #546F75",
"*	c #374950",
"=	c #38608A",
"                                                                ",
"                                                                ",
"                                                                ",
"                                                                ",
"                                                                ",
"                                                                ",
"                                                                ",
"                                                                ",
"                                                                ",
"                                                                ",
"                ..                                              ",
"                ..                                              ",
"              ..  ..                                            ",
"              ..  ..                                            ",
"                ..                      ..............++++++++++",
"                ..                      ..............++++++++++",
"                                    ............++++++++++@@@@@@",
"                                    ............++++++++++@@@@@@",
"                                ......++++++++++++++@@@@@@@@@@@@",
"                                ......++++++++++++++@@@@@@@@@@@@",
"      ..                      ......++++@@@@@@@@@@@@@@@@@@######",
"      ..                      ......++++@@@@@@@@@@@@@@@@@@######",
"    ..  ..                  ......++++@@@@@@@@@@############$$$$",
"    ..  ..                  ......++++@@@@@@@@@@############$$$$",
"      ..                  ......++@@@@@@@@########$$$$$$$$##$$$$",
"      ..                  ......++@@@@@@@@########$$$$$$$$##$$$$",
"                          ....++++@@@@@@##$$$$$$$$$$$$$$$$##$$$$",
"                          ....++++@@@@@@##$$$$$$$$$$$$$$$$##$$$$",
"                        ......++@@@@@@####$$$$$$$$$$$$$$$$##$$$$",
"                        ......++@@@@@@####$$$$$$$$$$$$$$$$##$$$$",
"                        ....++@@@@########$$$$$$$$$$%%%%%%&&%%%%",
"                        ....++@@@@########$$$$$$$$$$%%%%%%&&%%%%",
"                        ....++@@@@##$$$$##%%%%%%%%%%%%&&&&**&&&&",
"                        ....++@@@@##$$$$##%%%%%%%%%%%%&&&&**&&&&",
"                      ......++@@####$$%%&&%%&&&&&&&&&&&&&&**&&&&",
"                      ......++@@####$$%%&&%%&&&&&&&&&&&&&&**&&&&",
"                      ....++++####$$%%&&**&&&&&&&&&&&&&&&&**&&&&",
"                      ....++++####$$%%&&**&&&&&&&&&&&&&&&&**&&&&",
"                      ....++@@##$$%%&&&&**&&&&&&&&&&&&&&****&&&&",
"                      ....++@@##$$%%&&&&**&&&&&&&&&&&&&&****&&&&",
"                      ....++@@##%%&&&&&&**&&&&&&&&**************",
"                      ....++@@##%%&&&&&&**&&&&&&&&**************",
"                      ..++++@@##**&&&&&&****&&&&&&**************",
"                      ..++++@@##**&&&&&&****&&&&&&**************",
"                      ..++++@@##**&&&&&&************************",
"                      ..++++@@##**&&&&&&************************",
"      ..              ..++@@@@##**&&&&&&************************",
"      ..              ..++@@@@##**&&&&&&************************",
"    ..  ..            ..++@@@@##**&&****************************",
"    ..  ..            ..++@@@@##**&&****************************",
"      ..              ..++@@@@##********************============",
"      ..              ..++@@@@##********************============",
"                      ..++++@@##**************==================",
"                      ..++++@@##**************==================",
"                      ..++++@@##********========================",
"                      ..++++@@##********========================",
"                        ++++@@##********========================",
"                        ++++@@##********========================",
"                        ++++@@##****============================",
"                        ++++@@##****============================",
"                        ++++@@##**==============================",
"                        ++++@@##**==============================",
"                        ++++@@##================================",
"                        ++++@@##================================"};
