/* XPM */
static char * water_bottom_left+_xpm[] = {
"64 64 9 1",
" 	c #38608A",
".	c #614A29",
"+	c #B1965E",
"@	c #BDA982",
"#	c #70A853",
"$	c #8B6F3C",
"%	c #546F75",
"&	c #374950",
"*	c #6B888F",
"                                ..++@@@@########################",
"                                ..++@@@@########################",
"                                ..++@@@@@@@@####################",
"                                ..++@@@@@@@@####################",
"                                ..++++@@@@@@####################",
"                                ..++++@@@@@@####################",
"                                ....++@@@@@@@@##################",
"                                ....++@@@@@@@@##################",
"                                ..$$....@@@@@@@@################",
"                                ..$$....@@@@@@@@################",
"                                ..$$$$....@@@@@@@@@@############",
"                                ..$$$$....@@@@@@@@@@############",
"                                ..$$$$$$....@@@@@@@@@@@@@@@@@@##",
"                                ..$$$$$$....@@@@@@@@@@@@@@@@@@##",
"                                %%$$$$..$$....@@@@@@@@@@@@@@@@@@",
"                                %%$$$$..$$....@@@@@@@@@@@@@@@@@@",
"                                &&**$$$$..$$....++++++++++++++++",
"                                &&**$$$$..$$....++++++++++++++++",
"                                &&******..$$$$$$........++++++++",
"                                &&******..$$$$$$........++++++++",
"                              &&&&******..$$$$$$$$..$$$$........",
"                              &&&&******..$$$$$$$$..$$$$........",
"                              &&&&%%**%%**$$$$$$....$$$$$$$$$$$$",
"                              &&&&%%**%%**$$$$$$....$$$$$$$$$$$$",
"                              &&&&%%%%%%****$$$$..$$$$$$$$$$$$$$",
"                              &&&&%%%%%%****$$$$..$$$$$$$$$$$$$$",
"                              &&&&%%%%&&%%******..$$$$$$$$$$$$$$",
"                              &&&&%%%%&&%%******..$$$$$$$$$$$$$$",
"                                &&&&%%&&%%%%%%**%%$$$$$$$$$$$$$$",
"                                &&&&%%&&%%%%%%**%%$$$$$$$$$$$$$$",
"                                &&&&&&&&%%%%%%**%%**************",
"                                &&&&&&&&%%%%%%**%%**************",
"                                  &&&&%%%%%%%%%%&&%%%%%%%%%%%%%%",
"                                  &&&&%%%%%%%%%%&&%%%%%%%%%%%%%%",
"                                  &&&&%%&&&&%%%%&&%%%%%%%%%%%%%%",
"                                  &&&&%%&&&&%%%%&&%%%%%%%%%%%%%%",
"                                  &&&&&&&&&&%%%%&&&&%%%%%%%%%%%%",
"                                  &&&&&&&&&&%%%%&&&&%%%%%%%%%%%%",
"                                  &&&&&&&&&&%%%%&&&&%%%%%%%%%%%%",
"                                  &&&&&&&&&&%%%%&&&&%%%%%%%%%%%%",
"                                  &&&&&&&&&&&&%%&&%%%%%%%%%%&&&&",
"                                  &&&&&&&&&&&&%%&&%%%%%%%%%%&&&&",
"                                    &&&&&&&&&&&&&&&&&&&&&&&&&&&&",
"                                    &&&&&&&&&&&&&&&&&&&&&&&&&&&&",
"                                      &&&&&&&&&&&&&&&&&&&&&&&&&&",
"                                      &&&&&&&&&&&&&&&&&&&&&&&&&&",
"                                        &&&&&&&&&&&&&&&&&&&&&&&&",
"                                        &&&&&&&&&&&&&&&&&&&&&&&&",
"                                            &&&&&&&&&&&&&&&&&&&&",
"                                            &&&&&&&&&&&&&&&&&&&&",
"                                                                ",
"                                                                ",
"                                                                ",
"                                                                ",
"                                                                ",
"                                                                ",
"                                                                ",
"                                                                ",
"                                                                ",
"                                                                ",
"                                                                ",
"                                                                ",
"                                                                ",
"                                                                "};
