/* XPM */
static char * water_right_xpm[] = {
"64 64 6 1",
" 	c #70A853",
".	c #BDA982",
"+	c #B1965E",
"@	c #614A29",
"#	c #38608A",
"$	c #529740",
"                        ....++@@################################",
"                        ....++@@################################",
"                        ....++@@################################",
"                        ....++@@################################",
"                        ....++@@################################",
"                        ....++@@################################",
"                        ....++@@################################",
"                        ....++@@################################",
"                    $$......++@@################################",
"                    $$......++@@################################",
"                    $$......++@@################################",
"                    $$......++@@################################",
"                    $$......++@@################################",
"                    $$......++@@################################",
"                  $$$$......++@@################################",
"                  $$$$......++@@################################",
"                  $$........++@@################################",
"                  $$........++@@################################",
"    $$            $$$$......++@@################################",
"    $$            $$$$......++@@################################",
"  $$  $$          $$$$......++@@################################",
"  $$  $$          $$$$......++@@################################",
"    $$              $$......++@@################################",
"    $$              $$......++@@################################",
"                    $$......++@@################################",
"                    $$......++@@################################",
"                    $$......++@@################################",
"                    $$......++@@################################",
"                    $$......++@@################################",
"                    $$......++@@################################",
"                    $$......++@@################################",
"                    $$......++@@################################",
"                    $$......++@@################################",
"                    $$......++@@################################",
"                    $$......++@@################################",
"                    $$......++@@################################",
"                    $$......++@@################################",
"                    $$......++@@################################",
"                    $$$$....++@@################################",
"                    $$$$....++@@################################",
"                      $$....++@@################################",
"                      $$....++@@################################",
"                      $$....++@@################################",
"                      $$....++@@################################",
"        $$            $$....++@@################################",
"        $$            $$....++@@################################",
"      $$  $$          $$....++@@################################",
"      $$  $$          $$....++@@################################",
"        $$              ....++@@################################",
"        $$              ....++@@################################",
"                        ....++@@################################",
"                        ....++@@################################",
"                        ....++@@################################",
"                        ....++@@################################",
"                        ....++@@################################",
"                        ....++@@################################",
"                        ....++@@################################",
"                        ....++@@################################",
"                        ....++@@################################",
"                        ....++@@################################",
"                        ....++@@################################",
"                        ....++@@################################",
"                        ....++@@################################",
"                        ....++@@################################"};
