/* XPM */
static char * water_bottom_right+_xpm[] = {
"64 64 9 1",
" 	c #70A853",
".	c #BDA982",
"+	c #B1965E",
"@	c #614A29",
"#	c #38608A",
"$	c #8B6F3C",
"%	c #546F75",
"&	c #6B888F",
"*	c #374950",
"                        ..++++@@################################",
"                        ..++++@@################################",
"                        ..++++@@################################",
"                        ..++++@@################################",
"                      ....++++@@################################",
"                      ....++++@@################################",
"                      ....++@@@@################################",
"                      ....++@@@@################################",
"                    ....++++@@@@################################",
"                    ....++++@@@@################################",
"                  ......++@@@@@@################################",
"                  ......++@@@@@@################################",
"                ......++++@@$$@@################################",
"                ......++++@@$$@@################################",
"....................++++@@$$$$@@################################",
"....................++++@@$$$$@@################################",
"++++++++++++++++++++@@@@$$$$$$@@################################",
"++++++++++++++++++++@@@@$$$$$$@@################################",
"++++++++++++++++++@@@@$$$$$$$$%%################################",
"++++++++++++++++++@@@@$$$$$$$$%%################################",
"@@@@@@@@@@@@@@@@@@@@@@$$$$$$&&**################################",
"@@@@@@@@@@@@@@@@@@@@@@$$$$$$&&**################################",
"$$$$$$@@@@$$$$$$$$$$@@$$$$&&&&**################################",
"$$$$$$@@@@$$$$$$$$$$@@$$$$&&&&**################################",
"$$$$$$@@@@$$$$$$$$$$@@$$&&&&%%**################################",
"$$$$$$@@@@$$$$$$$$$$@@$$&&&&%%**################################",
"$$$$$$$$@@$$$$$$$$$$@@&&&&**%%**################################",
"$$$$$$$$@@$$$$$$$$$$@@&&&&**%%**################################",
"$$$$$$$$%%&&&&&&&&&&%%&&%%**%%**################################",
"$$$$$$$$%%&&&&&&&&&&%%&&%%**%%**################################",
"&&&&&&&&%%&&%%%%%%****%%********################################",
"&&&&&&&&%%&&%%%%%%****%%********################################",
"%%%%%%%%****%%%%%%**%%%%******##################################",
"%%%%%%%%****%%%%%%**%%%%******##################################",
"%%%%%%%%%%%%%%%%%%**%%%%****####################################",
"%%%%%%%%%%%%%%%%%%**%%%%****####################################",
"%%%%%%%%%%%%%%%%%%**********####################################",
"%%%%%%%%%%%%%%%%%%**********####################################",
"%%%%%%%%****%%%%%%********######################################",
"%%%%%%%%****%%%%%%********######################################",
"%%%%%%********%%********########################################",
"%%%%%%********%%********########################################",
"**********************##########################################",
"**********************##########################################",
"********************############################################",
"********************############################################",
"****************################################################",
"****************################################################",
"********########################################################",
"********########################################################",
"################################################################",
"################################################################",
"################################################################",
"################################################################",
"################################################################",
"################################################################",
"################################################################",
"################################################################",
"################################################################",
"################################################################",
"################################################################",
"################################################################",
"################################################################",
"################################################################"};
