/* XPM */
static char * water_top_left_xpm[] = {
"64 64 10 1",
" 	c #38608A",
".	c #374950",
"+	c #B1965E",
"@	c #BDA982",
"#	c #70A853",
"$	c #529740",
"%	c #614A29",
"&	c #C7B89A",
"*	c #2E6D31",
"=	c #1F492B",
"                                ..++@@@@########################",
"                                ..++@@@@########################",
"                                ..++@@@@@@######################",
"                                ..++@@@@@@######################",
"                                ..++@@@@@@@@####################",
"                                ..++@@@@@@@@####################",
"                                ..++@@@@@@@@@@##################",
"                                ..++@@@@@@@@@@##################",
"                                ..++++@@@@@@@@##################",
"                                ..++++@@@@@@@@##################",
"                                ..++++@@@@@@@@######$$##########",
"                                ..++++@@@@@@@@######$$##########",
"                                ..++++@@@@@@@@####$$##$$########",
"                                ..++++@@@@@@@@####$$##$$########",
"                                ..++++++@@@@@@######$$##########",
"                                ..++++++@@@@@@######$$##########",
"                                ..++++++@@@@@@##################",
"                                ..++++++@@@@@@##################",
"                                ..++++++@@@@@@$$################",
"                                ..++++++@@@@@@$$################",
"                                ..++++@@@@@@@@$$################",
"                                ..++++@@@@@@@@$$################",
"                                ..++++@@@@@@@@$$################",
"                                ..++++@@@@@@@@$$################",
"                                ..++++@@@@@@@@$$################",
"                                ..++++@@@@@@@@$$################",
"                                ..++++@@@@@@@@$$################",
"                                ..++++@@@@@@@@$$################",
"                              %%++++@@@@@@@@@@$$################",
"                              %%++++@@@@@@@@@@$$################",
"                          %%%%++++++@@@@@@@@@@$$################",
"                          %%%%++++++@@@@@@@@@@$$################",
"                      %%%%%%++++++@@@@@@@@@@@@$$################",
"                      %%%%%%++++++@@@@@@@@@@@@$$################",
"%%%%%%%%%%%%%%%%%%%%%%%%++++++++++@@@@@@@@@@$$$$################",
"%%%%%%%%%%%%%%%%%%%%%%%%++++++++++@@@@@@@@@@$$$$################",
"@@@@@@@@++++++++++++++++++++++++@@@@&&&&@@@@$$##################",
"@@@@@@@@++++++++++++++++++++++++@@@@&&&&@@@@$$##################",
"@@@@@@@@++++++++++++++++@@@@@@@@@@@@++++@@$$$$##################",
"@@@@@@@@++++++++++++++++@@@@@@@@@@@@++++@@$$$$##################",
"@@@@@@@@@@@@@@@@@@@@@@@@@@@@@@@@@@@@++@@@@$$####################",
"@@@@@@@@@@@@@@@@@@@@@@@@@@@@@@@@@@@@++@@@@$$####################",
"######@@@@@@@@@@@@@@@@@@@@@@@@@@@@@@@@@@$$$$####################",
"######@@@@@@@@@@@@@@@@@@@@@@@@@@@@@@@@@@$$$$####################",
"########@@@@@@@@@@@@@@@@@@@@@@@@@@@@@@$$$$######################",
"########@@@@@@@@@@@@@@@@@@@@@@@@@@@@@@$$$$######################",
"##########@@@@##$$$$$$$$$$$$$$$$$$$$$$########**######**########",
"##########@@@@##$$$$$$$$$$$$$$$$$$$$$$########**######**########",
"##############################################==**##**$$########",
"##############################################==**##**$$########",
"##############################################$$====$$$$########",
"##############################################$$====$$$$########",
"################################################################",
"################################################################",
"################################################################",
"################################################################",
"################################################################",
"################################################################",
"################################################################",
"################################################################",
"################################################################",
"################################################################",
"################################################################",
"################################################################"};
